<svg width="127" height="151" viewBox="0 -5 130 160" fill="none"
    xmlns="http://www.w3.org/2000/svg">
    <path d="M95.4061 110.192L99.0061 107.592C103.539 104.925 106.739 103.592 108.606 103.592C112.739 103.592 117.206 107.325 122.006 114.792C124.939 119.458 126.406 123.192 126.406 125.992C126.406 128.792 125.473 131.125 123.606 132.992C121.873 134.858 119.806 136.525 117.406 137.992C115.006 139.458 112.673 140.858 110.406 142.192C108.273 143.525 103.806 145.258 97.0061 147.392C90.2061 149.525 83.6061 150.592 77.2061 150.592C70.9394 150.592 64.5394 149.792 58.0061 148.192C51.6061 146.458 44.9394 143.658 38.0061 139.792C31.2061 135.792 25.0728 130.992 19.6061 125.392C14.1394 119.658 9.60609 112.392 6.00609 103.592C2.53942 94.6584 0.806091 84.9917 0.806091 74.5917C0.806091 64.1917 2.53942 54.7917 6.00609 46.3917C9.47276 37.8584 13.8728 30.8584 19.2061 25.3917C24.6728 19.7917 30.8728 15.125 37.8061 11.3917C50.8728 4.1917 64.0061 0.591703 77.2061 0.591703C83.4728 0.591703 89.8061 1.5917 96.2061 3.5917C102.739 5.45837 107.673 7.3917 111.006 9.3917L115.806 12.1917C118.206 13.6584 120.073 14.8584 121.406 15.7917C124.873 18.5917 126.606 21.7917 126.606 25.3917C126.606 28.8584 125.206 32.525 122.406 36.3917C117.206 43.5917 112.539 47.1917 108.406 47.1917C106.006 47.1917 102.606 45.725 98.2061 42.7917C92.6061 38.2584 85.1394 35.9917 75.8061 35.9917C67.1394 35.9917 58.6061 38.9917 50.2061 44.9917C46.2061 47.925 42.8728 52.0584 40.2061 57.3917C37.5394 62.725 36.2061 68.7917 36.2061 75.5917C36.2061 82.2584 37.5394 88.2584 40.2061 93.5917C42.8728 98.925 46.2728 103.125 50.4061 106.192C58.5394 112.058 67.0061 114.992 75.8061 114.992C79.9394 114.992 83.8061 114.458 87.4061 113.392C91.1394 112.325 93.8061 111.258 95.4061 110.192Z" fill="white"/>
    <path d="M95.4061 110.192L98.1796 114.352L98.2576 114.3L98.3335 114.245L95.4061 110.192ZM99.0061 107.592L96.471 103.282L96.2688 103.401L96.0786 103.538L99.0061 107.592ZM122.006 114.792L126.239 112.131L126.226 112.109L126.212 112.088L122.006 114.792ZM123.606 132.992L120.071 129.456L120.005 129.522L119.942 129.589L123.606 132.992ZM110.406 142.192L107.871 137.882L107.813 137.916L107.756 137.952L110.406 142.192ZM97.0061 147.392L98.5028 152.162L97.0061 147.392ZM58.0061 148.192L56.699 153.018L56.7577 153.034L56.8167 153.048L58.0061 148.192ZM38.0061 139.792L35.471 144.101L35.5205 144.131L35.5708 144.159L38.0061 139.792ZM19.6061 125.392L15.9874 128.842L16.0077 128.863L16.0282 128.884L19.6061 125.392ZM6.00609 103.592L1.34476 105.401L1.36118 105.443L1.37836 105.485L6.00609 103.592ZM6.00609 46.3917L10.628 48.2991L10.6332 48.2864L10.6384 48.2736L6.00609 46.3917ZM19.2061 25.3917L15.6282 21.899L15.6272 21.9001L19.2061 25.3917ZM37.8061 11.3917L40.1766 15.7941L40.1979 15.7826L40.2191 15.7709L37.8061 11.3917ZM96.2061 3.5917L94.7147 8.3641L94.7734 8.38243L94.8325 8.39932L96.2061 3.5917ZM111.006 9.3917L108.434 13.6792L108.46 13.695L108.487 13.7106L111.006 9.3917ZM115.806 12.1917L118.413 7.92529L118.37 7.8986L118.325 7.8728L115.806 12.1917ZM121.406 15.7917L124.548 11.902L124.414 11.794L124.273 11.6955L121.406 15.7917ZM122.406 36.3917L118.356 33.4591L118.353 33.4642L122.406 36.3917ZM98.2061 42.7917L95.0601 46.6779L95.24 46.8236L95.4326 46.952L98.2061 42.7917ZM50.2061 44.9917L47.2999 40.923L47.2745 40.9412L47.2493 40.9597L50.2061 44.9917ZM40.2061 93.5917L44.6782 91.3556L40.2061 93.5917ZM50.4061 106.192L47.4269 110.207L47.4538 110.227L47.4811 110.247L50.4061 106.192ZM87.4061 113.392L86.0325 108.584L86.009 108.591L85.9857 108.598L87.4061 113.392ZM98.3335 114.245L101.934 111.645L96.0786 103.538L92.4786 106.138L98.3335 114.245ZM101.541 111.901C103.701 110.631 105.418 109.753 106.729 109.207C108.152 108.614 108.679 108.592 108.606 108.592V98.5917C106.666 98.5917 104.66 99.2358 102.883 99.9763C100.994 100.763 98.845 101.886 96.471 103.282L101.541 111.901ZM108.606 108.592C109.102 108.592 110.153 108.81 111.85 110.228C113.547 111.647 115.546 113.989 117.8 117.495L126.212 112.088C123.666 108.127 121.032 104.87 118.263 102.555C115.492 100.24 112.244 98.5917 108.606 98.5917V108.592ZM117.773 117.453C120.607 121.962 121.406 124.677 121.406 125.992H131.406C131.406 121.706 129.272 116.955 126.239 112.131L117.773 117.453ZM121.406 125.992C121.406 127.555 120.938 128.588 120.071 129.456L127.142 136.527C130.007 133.662 131.406 130.029 131.406 125.992H121.406ZM119.942 129.589C118.55 131.088 116.849 132.472 114.799 133.725L120.013 142.258C122.763 140.578 125.195 138.628 127.27 136.394L119.942 129.589ZM114.799 133.725C112.421 135.178 110.112 136.564 107.871 137.882L112.941 146.501C115.234 145.153 117.591 143.738 120.013 142.258L114.799 133.725ZM107.756 137.952C106.248 138.894 102.389 140.463 95.5094 142.621L98.5028 152.162C105.223 150.054 110.297 148.156 113.056 146.432L107.756 137.952ZM95.5094 142.621C89.1394 144.619 83.0444 145.592 77.2061 145.592V155.592C84.1678 155.592 91.2728 154.431 98.5028 152.162L95.5094 142.621ZM77.2061 145.592C71.3684 145.592 65.3678 144.847 59.1954 143.335L56.8167 153.048C63.711 154.737 70.5105 155.592 77.2061 155.592V145.592ZM59.3132 143.366C53.3748 141.757 47.0863 139.131 40.4414 135.425L35.5708 144.159C42.7925 148.186 49.8374 151.159 56.699 153.018L59.3132 143.366ZM40.5412 135.482C34.1203 131.705 28.3383 127.179 23.184 121.899L16.0282 128.884C21.8072 134.804 28.2918 139.878 35.471 144.101L40.5412 135.482ZM23.2248 121.941C18.2655 116.74 14.0437 110.034 10.6338 101.699L1.37836 105.485C5.16846 114.75 10.0134 122.577 15.9874 128.842L23.2248 121.941ZM10.6674 101.783C7.443 93.4738 5.80609 84.426 5.80609 74.5917H-4.19391C-4.19391 85.5574 -2.36415 95.843 1.34476 105.401L10.6674 101.783ZM5.80609 74.5917C5.80609 64.7523 7.44441 56.0131 10.628 48.2991L1.38422 44.4843C-2.36556 53.5703 -4.19391 63.6311 -4.19391 74.5917H5.80609ZM10.6384 48.2736C13.9104 40.2194 17.9865 33.8018 22.785 28.8833L15.6272 21.9001C9.75904 27.9149 5.03507 35.4974 1.37376 44.5098L10.6384 48.2736ZM22.784 28.8844C27.8944 23.6493 33.6867 19.2886 40.1766 15.7941L35.4356 6.98934C28.0588 10.9614 21.4511 15.9341 15.6282 21.899L22.784 28.8844ZM40.2191 15.7709C52.6444 8.92429 64.9549 5.59171 77.2061 5.59171V-4.40829C63.0573 -4.40829 49.1011 -0.54089 35.3931 7.0125L40.2191 15.7709ZM77.2061 5.59171C82.9328 5.59171 88.7637 6.50441 94.7147 8.3641L97.6975 -1.1807C90.8485 -3.321 84.0127 -4.40829 77.2061 -4.40829V5.59171ZM94.8325 8.39932C101.209 10.221 105.654 12.0114 108.434 13.6792L113.579 5.10423C109.691 2.77198 104.27 0.69569 97.5797 -1.21592L94.8325 8.39932ZM108.487 13.7106L113.287 16.5106L118.325 7.8728L113.525 5.0728L108.487 13.7106ZM113.199 16.4581C115.564 17.9035 117.33 19.0415 118.539 19.8879L124.273 11.6955C122.816 10.6753 120.848 9.41328 118.413 7.92529L113.199 16.4581ZM118.264 19.6814C120.863 21.7801 121.606 23.6572 121.606 25.3917H131.606C131.606 19.9262 128.883 15.4033 124.548 11.902L118.264 19.6814ZM121.606 25.3917C121.606 27.4739 120.766 30.131 118.356 33.4591L126.456 39.3242C129.646 34.9191 131.606 30.2428 131.606 25.3917H121.606ZM118.353 33.4642C115.907 36.8505 113.764 39.1352 111.952 40.5328C110.131 41.9374 108.984 42.1917 108.406 42.1917V52.1917C111.962 52.1917 115.214 50.646 118.06 48.4506C120.915 46.2482 123.705 43.1329 126.459 39.3191L118.353 33.4642ZM108.406 42.1917C108.155 42.1917 107.416 42.0956 106.037 41.5006C104.703 40.9253 103.026 39.9955 100.98 38.6314L95.4326 46.952C97.7866 48.5213 100.009 49.7914 102.076 50.6828C104.096 51.5545 106.257 52.1917 108.406 52.1917V42.1917ZM101.352 38.9055C94.6278 33.462 85.9421 30.9917 75.8061 30.9917V40.9917C84.3367 40.9917 90.5844 43.0547 95.0601 46.6779L101.352 38.9055ZM75.8061 30.9917C65.9103 30.9917 56.3818 34.436 47.2999 40.923L53.1123 49.0604C60.8304 43.5474 68.3686 40.9917 75.8061 40.9917V30.9917ZM47.2493 40.9597C42.4916 44.4486 38.6847 49.2541 35.734 55.1556L44.6782 59.6278C47.0608 54.8626 49.9206 51.4014 53.1629 49.0237L47.2493 40.9597ZM35.734 55.1556C32.6743 61.275 31.2061 68.125 31.2061 75.5917H41.2061C41.2061 69.4584 42.4046 64.1751 44.6782 59.6278L35.734 55.1556ZM31.2061 75.5917C31.2061 82.942 32.681 89.7218 35.734 95.8278L44.6782 91.3556C42.3979 86.7949 41.2061 81.5748 41.2061 75.5917H31.2061ZM35.734 95.8278C38.6959 101.752 42.5701 106.604 47.4269 110.207L53.3853 102.176C49.9754 99.6463 47.0496 96.0983 44.6782 91.3556L35.734 95.8278ZM47.4811 110.247C56.3424 116.639 65.8133 119.992 75.8061 119.992V109.992C68.1989 109.992 60.7365 107.478 53.3311 102.137L47.4811 110.247ZM75.8061 119.992C80.3723 119.992 84.7215 119.402 88.8265 118.186L85.9857 108.598C82.8906 109.515 79.5065 109.992 75.8061 109.992V119.992ZM88.7797 118.199C92.6114 117.105 95.9037 115.869 98.1796 114.352L92.6326 106.031C91.7085 106.647 89.6675 107.546 86.0325 108.584L88.7797 118.199Z" fill="black"/>
</svg>
